<svg width="420" height="63" viewBox="0 0 420 63" fill="none" xmlns="http://www.w3.org/2000/svg">
<path d="M3.43197 62.1843V2.52466H44.3232V14.2352H17.9106V26.4701H41.7199V38.2098H17.9106V62.1843H3.43197Z" fill="#B9E739" fill-opacity="0.85"/>
<path d="M51.6137 62.1843V2.52466H66.0923V50.4738H91.0131V62.1843H51.6137Z" fill="#B9E739" fill-opacity="0.85"/>
<path d="M152.716 32.3545C152.716 38.9186 151.448 44.4826 148.913 49.0464C146.378 53.6102 142.946 57.0768 138.617 59.4461C134.308 61.8154 129.472 63 124.109 63C118.727 63 113.882 61.8056 109.572 59.4169C105.263 57.0282 101.84 53.5617 99.3054 49.0173C96.79 44.4535 95.5322 38.8992 95.5322 32.3545C95.5322 25.7904 96.79 20.2264 99.3054 15.6626C101.84 11.0988 105.263 7.63225 109.572 5.26295C113.882 2.89365 118.727 1.709 124.109 1.709C129.472 1.709 134.308 2.89365 138.617 5.26295C142.946 7.63225 146.378 11.0988 148.913 15.6626C151.448 20.2264 152.716 25.7904 152.716 32.3545ZM137.915 32.3545C137.915 28.4704 137.359 25.1884 136.248 22.5083C135.156 19.8283 133.576 17.7989 131.509 16.42C129.462 15.0412 126.995 14.3517 124.109 14.3517C121.243 14.3517 118.776 15.0412 116.709 16.42C114.642 17.7989 113.053 19.8283 111.941 22.5083C110.849 25.1884 110.303 28.4704 110.303 32.3545C110.303 36.2386 110.849 39.5207 111.941 42.2007C113.053 44.8807 114.642 46.9101 116.709 48.289C118.776 49.6679 121.243 50.3573 124.109 50.3573C126.995 50.3573 129.462 49.6679 131.509 48.289C133.576 46.9101 135.156 44.8807 136.248 42.2007C137.359 39.5207 137.915 36.2386 137.915 32.3545Z" fill="#B9E739" fill-opacity="0.85"/>
<path d="M161.169 62.1843V2.52466H185.914C190.399 2.52466 194.27 3.33061 197.526 4.94251C200.802 6.53499 203.327 8.8266 205.102 11.8174C206.876 14.7887 207.764 18.3135 207.764 22.3918C207.764 26.5284 206.857 30.0435 205.043 32.9371C203.23 35.8113 200.656 38.0059 197.321 39.5207C193.987 41.016 190.038 41.7637 185.475 41.7637H169.827V30.4027H182.784C184.968 30.4027 186.792 30.1211 188.254 29.558C189.736 28.9753 190.857 28.1014 191.618 26.9362C192.378 25.7515 192.758 24.2367 192.758 22.3918C192.758 20.5469 192.378 19.0224 191.618 17.8183C190.857 16.5948 189.736 15.682 188.254 15.08C186.772 14.4585 184.949 14.1478 182.784 14.1478H175.647V62.1843H161.169ZM194.894 34.918L209.811 62.1843H194.016L179.391 34.918H194.894Z" fill="#B9E739" fill-opacity="0.85"/>
<path d="M228.663 62.1843H213.102L233.313 2.52466H252.589L272.8 62.1843H257.24L243.17 17.5561H242.702L228.663 62.1843ZM226.586 38.705H259.112V49.6581H226.586V38.705Z" fill="#B9E739" fill-opacity="0.85"/>
<path d="M330.232 2.52466V62.1843H317.948L294.109 27.7519H293.729V62.1843H279.25V2.52466H291.71L315.286 36.8989H315.783V2.52466H330.232Z" fill="#B9E739" fill-opacity="0.85"/>
<path d="M353.815 2.52466V62.1843H339.336V2.52466H353.815Z" fill="#B9E739" fill-opacity="0.85"/>
<path d="M375.862 62.1843H360.301L380.513 2.52466H399.788L420 62.1843H404.439L390.37 17.5561H389.902L375.862 62.1843ZM373.785 38.705H406.311V49.6581H373.785V38.705Z" fill="#B9E739" fill-opacity="0.85"/>
<path d="M0 60.4753V0.81566H40.8912V12.5262H14.4786V24.7611H38.288V36.5008H14.4786V60.4753H0Z" fill="#4F772D"/>
<path d="M48.1817 60.4753V0.81566H62.6603V48.7648H87.5811V60.4753H48.1817Z" fill="#4F772D"/>
<path d="M149.284 30.6455C149.284 37.2096 148.016 42.7736 145.481 47.3374C142.946 51.9012 139.514 55.3678 135.185 57.7371C130.876 60.1064 126.04 61.291 120.677 61.291C115.295 61.291 110.45 60.0966 106.14 57.7079C101.831 55.3192 98.4084 51.8527 95.8735 47.3083C93.358 42.7445 92.1002 37.1902 92.1002 30.6455C92.1002 24.0814 93.358 18.5174 95.8735 13.9536C98.4084 9.3898 101.831 5.92324 106.14 3.55395C110.45 1.18465 115.295 0 120.677 0C126.04 0 130.876 1.18465 135.185 3.55395C139.514 5.92324 142.946 9.3898 145.481 13.9536C148.016 18.5174 149.284 24.0814 149.284 30.6455ZM134.483 30.6455C134.483 26.7614 133.927 23.4794 132.816 20.7993C131.724 18.1193 130.144 16.0899 128.077 14.711C126.03 13.3322 123.563 12.6427 120.677 12.6427C117.811 12.6427 115.344 13.3322 113.277 14.711C111.21 16.0899 109.621 18.1193 108.509 20.7993C107.417 23.4794 106.871 26.7614 106.871 30.6455C106.871 34.5296 107.417 37.8117 108.509 40.4917C109.621 43.1717 111.21 45.2011 113.277 46.58C115.344 47.9589 117.811 48.6483 120.677 48.6483C123.563 48.6483 126.03 47.9589 128.077 46.58C130.144 45.2011 131.724 43.1717 132.816 40.4917C133.927 37.8117 134.483 34.5296 134.483 30.6455Z" fill="#4F772D"/>
<path d="M157.737 60.4753V0.81566H182.482C186.967 0.81566 190.838 1.62161 194.094 3.23351C197.37 4.82599 199.895 7.1176 201.67 10.1084C203.444 13.0797 204.332 16.6045 204.332 20.6828C204.332 24.8194 203.425 28.3345 201.611 31.2281C199.798 34.1023 197.224 36.2969 193.889 37.8117C190.555 39.307 186.606 40.0547 182.043 40.0547H166.395V28.6937H179.352C181.536 28.6937 183.36 28.4121 184.822 27.849C186.304 27.2663 187.425 26.3924 188.186 25.2272C188.946 24.0425 189.326 22.5277 189.326 20.6828C189.326 18.8379 188.946 17.3133 188.186 16.1093C187.425 14.8858 186.304 13.973 184.822 13.371C183.34 12.7495 181.517 12.4388 179.352 12.4388H172.215V60.4753H157.737ZM191.462 33.209L206.379 60.4753H190.584L175.959 33.209H191.462Z" fill="#4F772D"/>
<path d="M225.231 60.4753H209.67L229.881 0.81566H249.157L269.368 60.4753H253.808L239.738 15.8471H239.27L225.231 60.4753ZM223.154 36.996H255.68V47.9491H223.154V36.996Z" fill="#4F772D"/>
<path d="M326.8 0.81566V60.4753H314.516L290.677 26.0428H290.297V60.4753H275.818V0.81566H288.279L311.854 35.1899H312.351V0.81566H326.8Z" fill="#4F772D"/>
<path d="M350.383 0.81566V60.4753H335.904V0.81566H350.383Z" fill="#4F772D"/>
<path d="M372.43 60.4753H356.869L377.081 0.81566H396.356L416.568 60.4753H401.007L386.938 15.8471H386.47L372.43 60.4753ZM370.353 36.996H402.879V47.9491H370.353V36.996Z" fill="#4F772D"/>
</svg>
